HIERARCHY
ROOT Hips
{
	OFFSET -0.001795 -0.223333 0.028219
	CHANNELS 6 Xposition Yposition Zposition Zrotation Yrotation Xrotation 
	JOINT LeftUpLeg
	{
		OFFSET 0.069520 -0.091406 -0.006815
		CHANNELS 3 Zrotation Yrotation Xrotation
		JOINT LeftLeg
		{
			OFFSET 0.034277 -0.375199 -0.004496
			CHANNELS 3 Zrotation Yrotation Xrotation
			JOINT LeftFoot
			{
				OFFSET -0.013596 -0.397961 -0.043693
				CHANNELS 3 Zrotation Yrotation Xrotation
				JOINT LeftToe
				{
					OFFSET 0.026358 -0.055791 0.119288
					CHANNELS 3 Zrotation Yrotation Xrotation
					End Site
					{
						OFFSET 0.000000 0.000000 0.000000
					}
				}
			}
		}
	}
	JOINT RightUpLeg
	{
		OFFSET -0.067670 -0.090522 -0.004320
		CHANNELS 3 Zrotation Yrotation Xrotation
		JOINT RightLeg
		{
			OFFSET -0.038290 -0.382569 -0.008850
			CHANNELS 3 Zrotation Yrotation Xrotation
			JOINT RightFoot
			{
				OFFSET 0.015774 -0.398415 -0.042312
				CHANNELS 3 Zrotation Yrotation Xrotation
				JOINT RightToe
				{
					OFFSET -0.025372 -0.048144 0.123348
					CHANNELS 3 Zrotation Yrotation Xrotation
					End Site
					{
						OFFSET 0.000000 0.000000 0.000000
					}
				}
			}
		}
	}
	JOINT Spine
	{
		OFFSET -0.002533 0.108963 -0.026696
		CHANNELS 3 Zrotation Yrotation Xrotation
		JOINT Spine1
		{
			OFFSET 0.005487 0.135180 0.001092
			CHANNELS 3 Zrotation Yrotation Xrotation
			JOINT Spine2
			{
				OFFSET 0.001457 0.052922 0.025425
				CHANNELS 3 Zrotation Yrotation Xrotation
				JOINT Neck
				{
					OFFSET -0.002778 0.213870 -0.042857
					CHANNELS 3 Zrotation Yrotation Xrotation
					JOINT Head
					{
						OFFSET 0.005152 0.064970 0.051349
						CHANNELS 3 Zrotation Yrotation Xrotation
						End Site
						{
							OFFSET 0.000000 0.000000 0.000000
						}
					}
				}
				JOINT LeftShoulder
				{
					OFFSET 0.078845 0.121749 -0.034090
					CHANNELS 3 Zrotation Yrotation Xrotation
					JOINT LeftArm
					{
						OFFSET 0.090977 0.030469 -0.008868
						CHANNELS 3 Zrotation Yrotation Xrotation
						JOINT LeftForeArm
						{
							OFFSET 0.259612 -0.012772 -0.027456
							CHANNELS 3 Zrotation Yrotation Xrotation
							JOINT LeftHand
							{
								OFFSET 0.249234 0.008986 -0.001171
								CHANNELS 3 Zrotation Yrotation Xrotation
								End Site
								{
									OFFSET 0.000000 0.000000 0.000000
								}
							}
						}
					}
				}
				JOINT RightShoulder
				{
					OFFSET -0.081759 0.118833 -0.038615
					CHANNELS 3 Zrotation Yrotation Xrotation
					JOINT RightArm
					{
						OFFSET -0.096012 0.032551 -0.009143
						CHANNELS 3 Zrotation Yrotation Xrotation
						JOINT RightForeArm
						{
							OFFSET -0.253742 -0.013329 -0.021401
							CHANNELS 3 Zrotation Yrotation Xrotation
							JOINT RightHand
							{
								OFFSET -0.255298 0.007772 -0.005559
								CHANNELS 3 Zrotation Yrotation Xrotation
								End Site
								{
									OFFSET 0.000000 0.000000 0.000000
								}
							}
						}
					}
				}
			}
		}
	}
}
MOTION
Frames: 8
Frame Time: 0.050000
1.239278 0.939451 3.772580 -179.064620 36.908744 177.905296 -4.765129 -4.842068 -20.084493 -28.262516 -21.321128 44.087667 38.683018 -6.990826 63.036062 0.000000 0.000000 0.000000 5.094760 -4.086000 9.417047 -1.186430 -4.442305 2.021861 11.828168 -20.023664 -4.964534 0.000000 0.000000 0.000000 4.444498 -0.799578 7.245003 -9.052456 -3.491297 -26.464850 7.247733 27.619198 27.241873 2.098985 -11.403186 -26.443725 0.000000 0.000000 0.000000 2.512134 -16.138222 -90.773329 44.778131 60.343790 33.850240 -36.633235 -6.251835 -4.110846 0.000000 0.000000 0.000000 21.754034 -17.450407 70.339612 3.909930 63.024050 -5.728833 -42.758619 29.817162 -12.569802 0.000000 0.000000 0.000000 
1.241107 0.938180 3.767718 -179.507318 28.882672 176.533289 -7.610817 -3.158806 -16.535811 -19.742131 -21.699535 40.803098 39.247547 -15.868441 56.335095 0.000000 0.000000 0.000000 6.116142 -4.305415 9.455335 -1.823189 -5.894612 3.905083 10.113812 -27.100338 -4.303429 0.000000 0.000000 0.000000 4.493474 -1.012243 9.064520 -8.359640 -3.828119 -29.511263 9.157136 26.434655 30.959719 -0.865032 -18.296697 -26.781772 0.000000 0.000000 0.000000 11.089197 -3.106927 -141.209242 79.185908 18.363832 33.555870 -36.049335 19.182014 -12.598276 0.000000 0.000000 0.000000 12.379299 -22.070145 93.868212 -49.556944 63.649749 -35.571885 -51.209779 9.451567 -5.089715 0.000000 0.000000 0.000000 
1.242289 0.939271 3.759835 179.394067 22.151533 175.549320 -9.573364 -1.959155 -13.483979 -12.749669 -20.151383 35.261176 42.870793 -27.758894 51.335923 0.000000 0.000000 0.000000 5.244636 -5.131302 9.663569 -1.267966 -7.888916 5.174579 9.166796 -31.220867 -3.384360 0.000000 0.000000 0.000000 4.268066 -0.864326 8.000844 -8.037953 -4.594310 -27.845052 8.673117 27.394250 29.456149 -4.651342 -27.035000 -23.798431 0.000000 0.000000 0.000000 12.433699 13.955883 170.599959 79.469522 -26.446479 -3.251086 -5.553168 37.846740 -7.743411 0.000000 0.000000 0.000000 2.401331 -22.774339 124.825898 -79.549783 47.634717 -41.169705 -53.395841 -15.216817 5.852433 0.000000 0.000000 0.000000 
1.243484 0.944123 3.750701 178.501699 15.241668 174.048313 -9.635490 -0.959127 -10.295221 -11.047041 -19.048588 31.518801 42.222569 -32.715548 47.846663 0.000000 0.000000 0.000000 5.084606 -6.088875 10.434443 -1.687041 -9.937794 6.993064 8.025814 -34.473135 -0.904503 0.000000 0.000000 0.000000 4.188675 -0.920636 8.718281 -8.018391 -5.079165 -29.828190 9.116365 24.837373 30.320324 -11.467016 -37.758586 -17.740749 0.000000 0.000000 0.000000 -1.540952 25.553531 117.142400 43.992031 -60.919130 -15.188771 26.742102 19.287848 0.742687 0.000000 0.000000 0.000000 -5.738308 -17.959292 161.308197 -89.142999 20.815325 -21.567954 -40.159790 -40.733869 10.809863 0.000000 0.000000 0.000000 
1.244601 0.946675 3.742285 178.085997 10.499669 173.574978 -9.336976 -0.748965 -9.177741 -13.129238 -20.171614 31.853790 44.617694 -35.463311 45.384584 0.000000 0.000000 0.000000 4.406532 -6.893540 10.745140 -1.359340 -11.459007 7.667569 11.112845 -34.334870 -1.347879 0.000000 0.000000 0.000000 5.493706 -1.177237 7.349613 -8.548857 -6.074758 -28.933319 9.552111 24.541575 29.579799 -16.475641 -43.216597 -14.135811 0.000000 0.000000 0.000000 -9.770843 24.782544 92.217852 5.004979 -63.172162 4.601754 29.050236 2.884821 -2.417356 0.000000 0.000000 0.000000 -7.640296 -12.923757 -173.745826 -91.561576 3.078028 -5.355726 -12.245325 -51.310234 -0.421260 0.000000 0.000000 0.000000 
1.246284 0.946494 3.736228 177.863082 6.241963 172.232413 -9.029447 -0.715911 -8.765841 -15.317450 -21.916836 33.525731 43.999210 -37.975342 46.990078 0.000000 0.000000 0.000000 2.792503 -8.715817 12.052415 -1.535400 -12.884597 8.547114 21.455210 -31.340931 -6.138112 0.000000 0.000000 0.000000 5.881779 -1.302505 7.072850 -5.273507 -5.006252 -25.875587 5.770334 23.144952 25.232198 -30.095812 -51.635784 -1.092323 0.000000 0.000000 0.000000 -9.202024 23.837710 90.255397 0.977220 -66.233176 6.683362 31.060773 -2.725827 -4.099959 0.000000 0.000000 0.000000 -5.901261 -16.480904 -172.469541 -89.725034 7.056530 -11.561617 -12.959127 -45.647321 -0.188373 0.000000 0.000000 0.000000 
1.248399 0.942215 3.732983 177.611534 5.052438 171.406353 -8.439299 -1.264304 -10.964639 -27.027743 -26.878471 42.754997 43.982251 -34.656864 51.969017 0.000000 0.000000 0.000000 1.912338 -9.232802 12.033039 -2.998692 -12.528980 9.441614 43.337568 -23.646268 -16.269182 0.000000 0.000000 0.000000 8.879131 -2.377958 6.351148 -7.021561 -6.604876 -23.453600 8.618479 23.777283 23.100680 -43.272818 -55.838307 6.209279 0.000000 0.000000 0.000000 -8.971838 23.077219 89.061868 -0.033352 -67.701036 7.011922 32.963375 -11.770790 -6.146213 0.000000 0.000000 0.000000 -8.943787 -17.193078 -171.246038 -90.844105 11.866392 -10.666664 -8.340847 -41.155700 -1.726165 0.000000 0.000000 0.000000 
1.251606 0.935668 3.732393 177.800588 0.589317 170.229539 -6.224213 -3.419120 -15.545849 -57.267634 -31.167517 63.276871 36.167643 -33.506770 75.118948 0.000000 0.000000 0.000000 2.693766 -9.839787 12.795227 -4.392582 -13.026247 10.210122 64.021846 -17.958496 -27.190370 0.000000 0.000000 0.000000 9.207815 -2.547028 5.981224 -2.608542 -5.122787 -21.924892 5.322179 19.299725 21.567034 18.124778 34.368595 -3.403205 0.000000 0.000000 0.000000 -4.111734 23.108055 102.298646 40.570732 -70.807477 -27.295482 35.326385 -11.754060 -5.716675 0.000000 0.000000 0.000000 -9.269423 -23.091845 171.295919 -85.222394 31.341881 -11.266182 -14.270289 -34.589706 -0.763984 0.000000 0.000000 0.000000 
